<?xml version="1.0" encoding="UTF-8" standalone="no"?>
<svg width="256px" height="256px" viewBox="0 0 256 256" version="1.1" xmlns="http://www.w3.org/2000/svg" xmlns:xlink="http://www.w3.org/1999/xlink" xmlns:sketch="http://www.bohemiancoding.com/sketch/ns">
    <!-- Generator: Sketch 3.1.1 (8761) - http://www.bohemiancoding.com/sketch -->
    <title>cafe</title>
    <desc>Created with Sketch.</desc>
    <defs>
        <filter x="-50%" y="-50%" width="200%" height="200%" filterUnits="objectBoundingBox" id="filter-1">
            <feOffset dx="5" dy="10" in="SourceAlpha" result="shadowOffsetOuter1"></feOffset>
            <feGaussianBlur stdDeviation="2" in="shadowOffsetOuter1" result="shadowBlurOuter1"></feGaussianBlur>
            <feColorMatrix values="0 0 0 0 0   0 0 0 0 0   0 0 0 0 0  0 0 0 0.35 0" in="shadowBlurOuter1" type="matrix" result="shadowMatrixOuter1"></feColorMatrix>
            <feMerge>
                <feMergeNode in="shadowMatrixOuter1"></feMergeNode>
                <feMergeNode in="SourceGraphic"></feMergeNode>
            </feMerge>
        </filter>
    </defs>
    <g id="Page-1" stroke="none" stroke-width="1" fill="none" fill-rule="evenodd" sketch:type="MSPage">
        <g id="cafe" sketch:type="MSArtboardGroup">
            <polygon id="Star-2" stroke="#000000" stroke-width="10" fill="#CA9853" filter="url(#filter-1)" sketch:type="MSShapeGroup" points="125 215.946597 104.787553 233.127041 92.1462999 209.805176 67.0924621 218.523885 63.729674 192.210346 37.218105 191.28981 43.5879451 165.538386 19.1991793 155.102929 34.4413654 133.391493 15.4692406 114.85048 37.5252311 100.111282 26.532038 75.9687809 52.423049 70.1924307 50.8934792 43.7090191 77.1227864 47.675645 85.2634167 22.4280548 108.288607 35.6019419 125 15 141.711393 35.6019419 164.736583 22.4280548 172.877214 47.675645 199.106521 43.7090191 197.576951 70.1924307 223.467962 75.9687809 212.474769 100.111282 234.530759 114.85048 215.558635 133.391493 230.800821 155.102929 206.412055 165.538386 212.781895 191.28981 186.270326 192.210346 182.907538 218.523885 157.8537 209.805176 145.212447 233.127041 "></polygon>
            <text id="PAIRS" sketch:type="MSTextLayer" font-family="Oswald Stencil" font-size="50" font-weight="bold" sketch:alignment="middle" line-spacing="61" fill="#FFFFFF">
                <tspan x="71.2158203" y="110.552734">Cafe</tspan>
            </text>
            <g id="Group" sketch:type="MSLayerGroup" transform="translate(94.000000, 129.000000)">
                <path d="M0.239947498,18.5211771 C-0.146111892,23.346094 -0.432059362,32.2466324 1.69145214,39.8006757 C4.78012056,50.7881061 14.6002256,65.9959012 14.6002256,65.9959012 L36.6145716,65.9959012 L36.6145716,65.9959012 L36.6145716,21.2271631 C21.112049,21.1599532 7.64734041,20.0904993 0.239947498,18.5211771 Z" id="Path-14" fill="#FFFFFF" sketch:type="MSShapeGroup"></path>
                <path d="M26.8151687,18.4324324 C26.4291093,23.2573494 26.1431619,32.1578878 28.2666734,39.711931 C31.3553418,50.6993615 41.1754469,65.9071566 41.1754469,65.9071566 L63.1897928,65.9071566 L63.1897928,65.9071566 L63.1897928,21.1384185 C47.6872702,21.0712086 34.2225617,20.0017546 26.8151687,18.4324324 Z" id="Path-15" fill="#FFFFFF" sketch:type="MSShapeGroup" transform="translate(44.867257, 42.169795) scale(-1, 1) translate(-44.867257, -42.169795) "></path>
                <path d="M59.2207663,19.481717 C48.8324368,19.481717 40.4110318,28.0160665 40.4110318,38.5437202 C40.4110318,49.0713738 48.8324368,57.6057234 59.2207663,57.6057234 C69.6090958,57.6057234 78.0305008,49.0713738 78.0305008,38.5437202 C78.0305008,28.0160665 69.6090958,19.481717 59.2207663,19.481717 Z M46.8600836,38.5437202 C46.8600836,45.4618926 52.3941498,51.0701794 59.2207663,51.0701794 C66.0473828,51.0701794 71.581449,45.4618926 71.581449,38.5437202 C71.581449,31.6255478 66.0473828,26.017261 59.2207663,26.017261 C52.3941498,26.017261 46.8600836,31.6255478 46.8600836,38.5437202 Z" id="Oval-2" fill="#FFFFFF" sketch:type="MSShapeGroup"></path>
                <path d="M18.7460159,0.374225803 C18.7460159,0.374225803 12.398496,4.5783945 12.398496,9.78062145 C12.398496,14.9828484 19.5519114,14.1621812 19.5519114,18.543741 C19.5519114,22.9253008 17.6044762,23.8701417 13.0793991,26.3834933" id="Path-20" stroke="#FFFFFF" stroke-width="10" sketch:type="MSShapeGroup"></path>
                <path d="M34.1915604,0.374225803 C34.1915604,0.374225803 27.8440406,4.5783945 27.8440406,9.78062145 C27.8440406,14.9828484 34.997456,14.1621812 34.997456,18.543741 C34.997456,22.9253008 33.0500208,23.8701417 28.5249436,26.3834933" id="Path-21" stroke="#FFFFFF" stroke-width="10" sketch:type="MSShapeGroup"></path>
                <path d="M49.637105,0.374225803 C49.637105,0.374225803 43.2895851,4.5783945 43.2895851,9.78062145 C43.2895851,14.9828484 50.4430005,14.1621812 50.4430005,18.543741 C50.4430005,22.9253008 48.4955653,23.8701417 43.9704882,26.3834933" id="Path-22" stroke="#FFFFFF" stroke-width="10" sketch:type="MSShapeGroup"></path>
            </g>
        </g>
    </g>
</svg>