<?xml version="1.0" encoding="UTF-8" standalone="no"?>
<svg width="256px" height="256px" viewBox="0 0 256 256" version="1.1" xmlns="http://www.w3.org/2000/svg" xmlns:xlink="http://www.w3.org/1999/xlink" xmlns:sketch="http://www.bohemiancoding.com/sketch/ns">
    <!-- Generator: Sketch 3.1.1 (8761) - http://www.bohemiancoding.com/sketch -->
    <title>location</title>
    <desc>Created with Sketch.</desc>
    <defs>
        <filter x="-50%" y="-50%" width="200%" height="200%" filterUnits="objectBoundingBox" id="filter-1">
            <feOffset dx="5" dy="10" in="SourceAlpha" result="shadowOffsetOuter1"></feOffset>
            <feGaussianBlur stdDeviation="2" in="shadowOffsetOuter1" result="shadowBlurOuter1"></feGaussianBlur>
            <feColorMatrix values="0 0 0 0 0   0 0 0 0 0   0 0 0 0 0  0 0 0 0.35 0" in="shadowBlurOuter1" type="matrix" result="shadowMatrixOuter1"></feColorMatrix>
            <feMerge>
                <feMergeNode in="shadowMatrixOuter1"></feMergeNode>
                <feMergeNode in="SourceGraphic"></feMergeNode>
            </feMerge>
        </filter>
    </defs>
    <g id="Page-1" stroke="none" stroke-width="1" fill="none" fill-rule="evenodd" sketch:type="MSPage">
        <g id="location" sketch:type="MSArtboardGroup">
            <polygon id="Star-1" stroke="#000000" stroke-width="10" fill="#42EA00" filter="url(#filter-1)" sketch:type="MSShapeGroup" points="130 212.946597 109.787553 230.127041 97.1462999 206.805176 72.0924621 215.523885 68.729674 189.210346 42.218105 188.28981 48.5879451 162.538386 24.1991793 152.102929 39.4413654 130.391493 20.4692406 111.85048 42.5252311 97.1112824 31.532038 72.9687809 57.423049 67.1924307 55.8934792 40.7090191 82.1227864 44.675645 90.2634167 19.4280548 113.288607 32.6019419 130 12 146.711393 32.6019419 169.736583 19.4280548 177.877214 44.675645 204.106521 40.7090191 202.576951 67.1924307 228.467962 72.9687809 217.474769 97.1112824 239.530759 111.85048 220.558635 130.391493 235.800821 152.102929 211.412055 162.538386 217.781895 188.28981 191.270326 189.210346 187.907538 215.523885 162.8537 206.805176 150.212447 230.127041 "></polygon>
            <path d="M131.4225,102.769231 C143.7225,102.769231 153.5625,113.692308 153.5625,126.307692 C153.5625,138.923077 142.64625,148.769231 130.34625,148.769231 C118.123125,148.769231 107.28375,138.538462 107.28375,125.923077 C107.28375,113.307692 119.199375,102.769231 131.4225,102.769231 L131.4225,102.769231 Z M183.6975,79.6923077 L153.40875,79.6923077 C153.40875,72.3846154 149.488125,72 144.568125,72 L116.355,72 C111.435,72 107.4375,72.3846154 107.4375,79.6923077 L77.3025,79.6923077 C72.3825,79.6923077 69,82.5384615 69,87.6153846 L69,162.846154 C69,167.923077 72.3825,172 77.3025,172 L183.6975,172 C188.6175,172 192,167.923077 192,162.846154 L192,87.6153846 C192,82.5384615 188.6175,79.6923077 183.6975,79.6923077 L183.6975,79.6923077 Z M168.9375,95.0769231 C168.9375,90.8461538 172.396875,87.3846154 176.625,87.3846154 C180.853125,87.3846154 184.3125,90.8461538 184.3125,95.0769231 C184.3125,99.3076923 180.853125,102.769231 176.625,102.769231 C172.396875,102.769231 168.9375,99.3076923 168.9375,95.0769231 L168.9375,95.0769231 Z" id="Shape" fill="#FFFFFF" sketch:type="MSShapeGroup"></path>
        </g>
    </g>
</svg>