<?xml version="1.0" encoding="UTF-8" standalone="no"?>
<svg width="256px" height="256px" viewBox="0 0 256 256" version="1.1" xmlns="http://www.w3.org/2000/svg" xmlns:xlink="http://www.w3.org/1999/xlink" xmlns:sketch="http://www.bohemiancoding.com/sketch/ns">
    <!-- Generator: Sketch 3.1.1 (8761) - http://www.bohemiancoding.com/sketch -->
    <title>magnets</title>
    <desc>Created with Sketch.</desc>
    <defs>
        <filter x="-50%" y="-50%" width="200%" height="200%" filterUnits="objectBoundingBox" id="filter-1">
            <feOffset dx="5" dy="10" in="SourceAlpha" result="shadowOffsetOuter1"></feOffset>
            <feGaussianBlur stdDeviation="2" in="shadowOffsetOuter1" result="shadowBlurOuter1"></feGaussianBlur>
            <feColorMatrix values="0 0 0 0 0   0 0 0 0 0   0 0 0 0 0  0 0 0 0.35 0" in="shadowBlurOuter1" type="matrix" result="shadowMatrixOuter1"></feColorMatrix>
            <feMerge>
                <feMergeNode in="shadowMatrixOuter1"></feMergeNode>
                <feMergeNode in="SourceGraphic"></feMergeNode>
            </feMerge>
        </filter>
        <filter x="-50%" y="-50%" width="200%" height="200%" filterUnits="objectBoundingBox" id="filter-2">
            <feOffset dx="5" dy="10" in="SourceAlpha" result="shadowOffsetOuter1"></feOffset>
            <feGaussianBlur stdDeviation="2" in="shadowOffsetOuter1" result="shadowBlurOuter1"></feGaussianBlur>
            <feColorMatrix values="0 0 0 0 0   0 0 0 0 0   0 0 0 0 0  0 0 0 0.35 0" in="shadowBlurOuter1" type="matrix" result="shadowMatrixOuter1"></feColorMatrix>
            <feMerge>
                <feMergeNode in="shadowMatrixOuter1"></feMergeNode>
                <feMergeNode in="SourceGraphic"></feMergeNode>
            </feMerge>
        </filter>
    </defs>
    <g id="Page-1" stroke="none" stroke-width="1" fill="none" fill-rule="evenodd" sketch:type="MSPage">
        <g id="magnets" sketch:type="MSArtboardGroup">
            <path d="M16.9366781,132.119309 C16.9366781,137.373535 21.528837,141.632927 27.2297386,141.632927 L227.723386,141.632927 C233.408087,141.632927 238.016447,137.371224 238.016447,132.119309 L238.016447,61.8534617 C238.016447,56.5992356 233.424288,52.3398438 227.723386,52.3398438 L27.2297386,52.3398438 C21.5450383,52.3398438 16.9366781,56.6015462 16.9366781,61.8534617 L16.9366781,132.119309 Z" id="Rectangle-1" fill="#141E9E" filter="url(#filter-1)" sketch:type="MSShapeGroup"></path>
            <rect id="Rectangle-1" fill="#141E9E" filter="url(#filter-2)" sketch:type="MSShapeGroup" x="37.984375" y="150" width="192" height="68" rx="8"></rect>
            <path d="M40,77.7195584 L40,120.428879 C40,124.058009 43.3736441,127 47.5446251,127 L213.400687,127 C217.567469,127 220.945312,124.056242 220.945312,120.428879 L220.945312,77.7195584 C220.945312,74.0904285 217.571668,71.1484375 213.400687,71.1484375 L47.5446251,71.1484375 C43.3778437,71.1484375 40,74.0921958 40,77.7195584 Z" id="Rectangle-1" fill="#FFFFFF" sketch:type="MSShapeGroup"></path>
            <text id="PAIRS" sketch:type="MSTextLayer" font-family="Oswald Stencil" font-size="40" font-weight="bold" sketch:alignment="middle" line-spacing="61" fill="#FFFFFF">
                <tspan x="53.90625" y="200">magnets</tspan>
            </text>
        </g>
    </g>
</svg>