<?xml version="1.0" encoding="UTF-8" standalone="no"?>
<svg width="256px" height="256px" viewBox="0 0 256 256" version="1.1" xmlns="http://www.w3.org/2000/svg" xmlns:xlink="http://www.w3.org/1999/xlink" xmlns:sketch="http://www.bohemiancoding.com/sketch/ns">
    <!-- Generator: Sketch 3.1.1 (8761) - http://www.bohemiancoding.com/sketch -->
    <title>minigame</title>
    <desc>Created with Sketch.</desc>
    <defs>
        <filter x="-50%" y="-50%" width="200%" height="200%" filterUnits="objectBoundingBox" id="filter-1">
            <feOffset dx="5" dy="10" in="SourceAlpha" result="shadowOffsetOuter1"></feOffset>
            <feGaussianBlur stdDeviation="2" in="shadowOffsetOuter1" result="shadowBlurOuter1"></feGaussianBlur>
            <feColorMatrix values="0 0 0 0 0   0 0 0 0 0   0 0 0 0 0  0 0 0 0.35 0" in="shadowBlurOuter1" type="matrix" result="shadowMatrixOuter1"></feColorMatrix>
            <feMerge>
                <feMergeNode in="shadowMatrixOuter1"></feMergeNode>
                <feMergeNode in="SourceGraphic"></feMergeNode>
            </feMerge>
        </filter>
    </defs>
    <g id="Page-1" stroke="none" stroke-width="1" fill="none" fill-rule="evenodd" sketch:type="MSPage">
        <g id="minigame" sketch:type="MSArtboardGroup">
            <polygon id="Star-1" stroke="#000000" stroke-width="10" fill="#4990E2" filter="url(#filter-1)" sketch:type="MSShapeGroup" points="130 209.946597 109.787553 227.127041 97.1462999 203.805176 72.0924621 212.523885 68.729674 186.210346 42.218105 185.28981 48.5879451 159.538386 24.1991793 149.102929 39.4413654 127.391493 20.4692406 108.85048 42.5252311 94.1112824 31.532038 69.9687809 57.423049 64.1924307 55.8934792 37.7090191 82.1227864 41.675645 90.2634167 16.4280548 113.288607 29.6019419 130 9 146.711393 29.6019419 169.736583 16.4280548 177.877214 41.675645 204.106521 37.7090191 202.576951 64.1924307 228.467962 69.9687809 217.474769 94.1112824 239.530759 108.85048 220.558635 127.391493 235.800821 149.102929 211.412055 159.538386 217.781895 185.28981 191.270326 186.210346 187.907538 212.523885 162.8537 203.805176 150.212447 227.127041 "></polygon>
            <text id="MINI" sketch:type="MSTextLayer" font-family="Oswald Stencil" font-size="55" font-weight="bold" sketch:alignment="middle" line-spacing="61" fill="#000000">
                <tspan x="72.5158691" y="106.708008">MINI</tspan>
                <tspan x="60.390625" y="168.708008">GAME</tspan>
            </text>
        </g>
    </g>
</svg>