<?xml version="1.0" encoding="UTF-8" standalone="no"?>
<svg width="256px" height="256px" viewBox="0 0 256 256" version="1.1" xmlns="http://www.w3.org/2000/svg" xmlns:xlink="http://www.w3.org/1999/xlink" xmlns:sketch="http://www.bohemiancoding.com/sketch/ns">
    <!-- Generator: Sketch 3.1.1 (8761) - http://www.bohemiancoding.com/sketch -->
    <title>review</title>
    <desc>Created with Sketch.</desc>
    <defs>
        <filter x="-50%" y="-50%" width="200%" height="200%" filterUnits="objectBoundingBox" id="filter-1">
            <feOffset dx="5" dy="10" in="SourceAlpha" result="shadowOffsetOuter1"></feOffset>
            <feGaussianBlur stdDeviation="2" in="shadowOffsetOuter1" result="shadowBlurOuter1"></feGaussianBlur>
            <feColorMatrix values="0 0 0 0 0   0 0 0 0 0   0 0 0 0 0  0 0 0 0.35 0" in="shadowBlurOuter1" type="matrix" result="shadowMatrixOuter1"></feColorMatrix>
            <feMerge>
                <feMergeNode in="shadowMatrixOuter1"></feMergeNode>
                <feMergeNode in="SourceGraphic"></feMergeNode>
            </feMerge>
        </filter>
    </defs>
    <g id="Page-1" stroke="none" stroke-width="1" fill="none" fill-rule="evenodd" sketch:type="MSPage">
        <g id="review" sketch:type="MSArtboardGroup">
            <polygon id="Star-1" stroke="#000000" stroke-width="10" fill="#C43333" filter="url(#filter-1)" sketch:type="MSShapeGroup" points="124 219.946597 103.787553 237.127041 91.1462999 213.805176 66.0924621 222.523885 62.729674 196.210346 36.218105 195.28981 42.5879451 169.538386 18.1991793 159.102929 33.4413654 137.391493 14.4692406 118.85048 36.5252311 104.111282 25.532038 79.9687809 51.423049 74.1924307 49.8934792 47.7090191 76.1227864 51.675645 84.2634167 26.4280548 107.288607 39.6019419 124 19 140.711393 39.6019419 163.736583 26.4280548 171.877214 51.675645 198.106521 47.7090191 196.576951 74.1924307 222.467962 79.9687809 211.474769 104.111282 233.530759 118.85048 214.558635 137.391493 229.800821 159.102929 205.412055 169.538386 211.781895 195.28981 185.270326 196.210346 181.907538 222.523885 156.8537 213.805176 144.212447 237.127041 "></polygon>
            <path d="M140.5,151.142857 L140.5,143.928571 L133.3125,143.928571 L133.3125,136.714286 L126.125,136.714286 L126.125,151.142857 L133.3125,151.142857 L140.5,151.142857 L140.5,151.142857 Z M169.25,136.714286 L162.0625,136.714286 L162.0625,143.928571 L154.875,143.928571 L154.875,165.571429 L97.375,165.571429 L97.375,93.4285714 L154.875,93.4285714 L154.875,86.2142857 L162.0625,86.2142857 L162.0625,79 L154.875,79 L140.5,79 L90.1875,79 L90.1875,86.2142857 L83,86.2142857 L83,172.785714 L90.1875,172.785714 L90.1875,180 L162.0625,180 L162.0625,172.785714 L169.25,172.785714 L169.25,143.928571 L169.25,136.714286 L169.25,136.714286 Z M126.125,158.357143 L126.125,151.142857 L118.9375,151.142857 L118.9375,158.357143 L126.125,158.357143 L126.125,158.357143 Z M183.625,107.857143 L183.625,100.642857 L176.4375,100.642857 L176.4375,93.4285714 L162.0625,93.4285714 L162.0625,100.642857 L154.875,100.642857 L154.875,107.857143 L147.6875,107.857143 L147.6875,115.071429 L140.5,115.071429 L140.5,122.285714 L133.3125,122.285714 L133.3125,136.714286 L140.5,136.714286 L140.5,143.928571 L154.875,143.928571 L154.875,136.714286 L162.0625,136.714286 L162.0625,129.5 L169.25,129.5 L169.25,122.285714 L176.4375,122.285714 L176.4375,115.071429 L183.625,115.071429 L183.625,107.857143 L183.625,107.857143 Z M176.4375,79 L176.4375,93.4285714 L183.625,93.4285714 L183.625,100.642857 L198,100.642857 L198,86.2142857 L190.8125,86.2142857 L190.8125,79 L176.4375,79 L176.4375,79 Z" id="Shape" fill="#FFFFFF" sketch:type="MSShapeGroup"></path>
        </g>
    </g>
</svg>