<?xml version="1.0" encoding="UTF-8" standalone="no"?>
<svg width="255px" height="256px" viewBox="0 0 255 256" version="1.1" xmlns="http://www.w3.org/2000/svg" xmlns:xlink="http://www.w3.org/1999/xlink" xmlns:sketch="http://www.bohemiancoding.com/sketch/ns">
    <!-- Generator: Sketch 3.1.1 (8761) - http://www.bohemiancoding.com/sketch -->
    <title>start</title>
    <desc>Created with Sketch.</desc>
    <defs>
        <filter x="-50%" y="-50%" width="200%" height="200%" filterUnits="objectBoundingBox" id="filter-1">
            <feOffset dx="5" dy="15" in="SourceAlpha" result="shadowOffsetOuter1"></feOffset>
            <feGaussianBlur stdDeviation="2" in="shadowOffsetOuter1" result="shadowBlurOuter1"></feGaussianBlur>
            <feColorMatrix values="0 0 0 0 0   0 0 0 0 0   0 0 0 0 0  0 0 0 0.335634624 0" in="shadowBlurOuter1" type="matrix" result="shadowMatrixOuter1"></feColorMatrix>
            <feOffset dx="2" dy="2" in="SourceAlpha" result="shadowOffsetInner1"></feOffset>
            <feGaussianBlur stdDeviation="0" in="shadowOffsetInner1" result="shadowBlurInner1"></feGaussianBlur>
            <feComposite in="shadowBlurInner1" in2="SourceAlpha" operator="arithmetic" k2="-1" k3="1" result="shadowInnerInner1"></feComposite>
            <feColorMatrix values="0 0 0 0 0.949032738   0 0 0 0 0.908534833   0 0 0 0 0.908534833  0 0 0 0.35 0" in="shadowInnerInner1" type="matrix" result="shadowMatrixInner1"></feColorMatrix>
            <feMerge>
                <feMergeNode in="shadowMatrixOuter1"></feMergeNode>
                <feMergeNode in="SourceGraphic"></feMergeNode>
                <feMergeNode in="shadowMatrixInner1"></feMergeNode>
            </feMerge>
        </filter>
    </defs>
    <g id="Page-1" stroke="none" stroke-width="1" fill="none" fill-rule="evenodd" sketch:type="MSPage">
        <g id="start" sketch:type="MSArtboardGroup">
            <polygon id="Star-1" stroke="#000000" stroke-width="10" fill="#42DA1A" filter="url(#filter-1)" sketch:type="MSShapeGroup" points="128 208.672035 107.700961 226 95.0055514 202.47788 69.8443805 211.271453 66.4671858 184.731972 39.8420387 183.803532 46.2391678 157.830992 21.7459181 147.30593 37.0534033 125.408068 18 106.707852 40.1504805 91.8420948 29.1101915 67.4922924 55.1121222 61.6663434 53.5759995 34.9555306 79.9176756 38.9562161 88.0931813 13.4918361 111.217013 26.7788415 128 6 144.782987 26.7788415 167.906819 13.4918361 176.082324 38.9562161 202.424 34.9555306 200.887878 61.6663434 226.889809 67.4922924 215.849519 91.8420948 238 106.707852 218.946597 125.408068 234.254082 147.30593 209.760832 157.830992 216.157961 183.803532 189.532814 184.731972 186.15562 211.271453 160.994449 202.47788 148.299039 226 "></polygon>
            <text sketch:type="MSTextLayer" font-family="Oswald Stencil" font-size="61" font-weight="bold" sketch:alignment="middle" fill="#000000">
                <tspan x="55.1923828" y="144">start</tspan>
            </text>
        </g>
    </g>
</svg>