<?xml version="1.0" encoding="UTF-8" standalone="no"?>
<svg width="256px" height="256px" viewBox="0 0 256 256" version="1.1" xmlns="http://www.w3.org/2000/svg" xmlns:xlink="http://www.w3.org/1999/xlink" xmlns:sketch="http://www.bohemiancoding.com/sketch/ns">
    <!-- Generator: Sketch 3.1.1 (8761) - http://www.bohemiancoding.com/sketch -->
    <title>tip</title>
    <desc>Created with Sketch.</desc>
    <defs>
        <filter x="-50%" y="-50%" width="200%" height="200%" filterUnits="objectBoundingBox" id="filter-1">
            <feOffset dx="5" dy="10" in="SourceAlpha" result="shadowOffsetOuter1"></feOffset>
            <feGaussianBlur stdDeviation="2" in="shadowOffsetOuter1" result="shadowBlurOuter1"></feGaussianBlur>
            <feColorMatrix values="0 0 0 0 0   0 0 0 0 0   0 0 0 0 0  0 0 0 0.35 0" in="shadowBlurOuter1" type="matrix" result="shadowMatrixOuter1"></feColorMatrix>
            <feMerge>
                <feMergeNode in="shadowMatrixOuter1"></feMergeNode>
                <feMergeNode in="SourceGraphic"></feMergeNode>
            </feMerge>
        </filter>
    </defs>
    <g id="Page-1" stroke="none" stroke-width="1" fill="none" fill-rule="evenodd" sketch:type="MSPage">
        <g id="tip" sketch:type="MSArtboardGroup">
            <polygon id="Star-1" stroke="#000000" stroke-width="10" fill="#F5A638" filter="url(#filter-1)" sketch:type="MSShapeGroup" points="130 216.946597 109.787553 234.127041 97.1462999 210.805176 72.0924621 219.523885 68.729674 193.210346 42.218105 192.28981 48.5879451 166.538386 24.1991793 156.102929 39.4413654 134.391493 20.4692406 115.85048 42.5252311 101.111282 31.532038 76.9687809 57.423049 71.1924307 55.8934792 44.7090191 82.1227864 48.675645 90.2634167 23.4280548 113.288607 36.6019419 130 16 146.711393 36.6019419 169.736583 23.4280548 177.877214 48.675645 204.106521 44.7090191 202.576951 71.1924307 228.467962 76.9687809 217.474769 101.111282 239.530759 115.85048 220.558635 134.391493 235.800821 156.102929 211.412055 166.538386 217.781895 192.28981 191.270326 193.210346 187.907538 219.523885 162.8537 210.805176 150.212447 234.127041 "></polygon>
            <text id="TIP!" sketch:type="MSTextLayer" font-family="Oswald Stencil" font-size="76" font-weight="bold" sketch:alignment="middle" line-spacing="61" fill="#000000">
                <tspan x="67.0234375" y="161.160156">TIP!</tspan>
            </text>
        </g>
    </g>
</svg>